<svg width="26" height="26" viewBox="0 0 26 26" fill="none" xmlns="http://www.w3.org/2000/svg">
<path d="M18 11C18 13.7614 15.7614 16 13 16C10.2386 16 8 13.7614 8 11C8 8.2386 10.2386 6 13 6C15.7614 6 18 8.2386 18 11Z"  fill="currentColor"/>
<path fill-rule="evenodd" clip-rule="evenodd" d="M13 26C20.1797 26 26 20.1797 26 13C26 5.8203 20.1797 0 13 0C5.8203 0 0 5.8203 0 13C0 20.1797 5.8203 26 13 26ZM21.7818 19.6252C23.1742 17.7825 24 15.4877 24 13C24 6.92487 19.0751 2 13 2C6.92487 2 2 6.92487 2 13C2 15.4877 2.8258 17.7825 4.21822 19.6252C4.30867 19.5127 4.42565 19.4212 4.56615 19.3608C5.65194 18.8945 8.342 18 13 18C17.658 18 20.3481 18.8945 21.4339 19.3608C21.5744 19.4212 21.6913 19.5127 21.7818 19.6252Z"  fill="currentColor"/>
</svg>
